<?xml version="1.0" encoding="UTF-8"?><svg id="_レイヤー_1" xmlns="http://www.w3.org/2000/svg" width="362.9" height="382" viewBox="0 0 362.9 382"><path d="M218.2207,64.406c0,11.6487-9.4471,21.0938-21.0936,21.0938-11.653,0-21.0958-9.4452-21.0958-21.0938s9.4428-21.0936,21.0958-21.0936c11.6465,0,21.0936,9.4449,21.0936,21.0936Z" style="fill:#118b42; stroke-width:0px;"/><path d="M216.3639,222.3147l-21.4722,32.2771c-3.2337,5.2321-9.041,8.4721-15.2018,8.4721-3.24,0-6.425-.884-9.2124-2.5673-8.3749-5.0587-11.1073-15.9503-6.1437-24.3548l12.2323-22.4387c-8.5228-.9728-17.3672-1.5016-26.457-1.5016-67.4874,0-122.1969,28.3138-122.1969,63.243s54.7095,63.2432,122.1969,63.2432,122.2014-28.314,122.2014-63.2432c0-22.2864-22.2908-41.8659-55.9467-53.1297Z" style="fill:#118b42; stroke-width:0px;"/><path d="M316.4859,195.3925l-42.6739-1.878-.4061-9.1827h13.9096s-3.7517-33.7194-28.7558-55.6295c-3.8089-6.3321-7.8313-13.1207-9.629-16.1577l15.8509-2.9862,28.1256,25.7508c3.2041,3.206,8.4024,3.206,11.6086,0,3.206-3.2021,3.206-8.4005,0-11.6064l-25.7042-28.4238c-2.4998-3.0371-5.0015-5.3634-9.7369-6.0527,0,0-50.6509-2.3815-59.9417-.2369-5.8032,1.3407-15.7218,5.0037-20.4338,13.277l-14.8718,22.6165-35.3055,1.6199c-4.5366,0-8.2101,3.6757-8.2101,8.2101s3.6735,8.2099,8.2101,8.2099l40.599,1.8611c.0466,0,.0953-.0087.1419-.0087,3.1722.0424,6.3128-1.3999,8.3114-4.1662l12.9641-16.3817c.0063.0041.0191.021.0191.021.0719-.1141.1479-.2198.2198-.3214l.5986-.7571c1.0891-1.1885,1.7299-.9475,3.2294,1.5523,2.8593,4.767,10.0054,19.2959,11.9131,23.8219.8227,1.954,1.2519,3.6967.4736,6.0061-.0635.0972-.1332.1862-.1923.2835l-19.8291,36.3671-26.4273,48.4855c-3.0559,5.0589-1.4297,11.6361,3.6292,14.6942,5.0565,3.0537,11.6381,1.4254,14.692-3.6335l30.5873-45.973,13.6008-20.4422h12.0801l3.0221,22.7051c.1269,1.4044.4717,2.7283.9919,3.9592,1.9456,4.8218,6.6576,8.2268,12.1732,8.2268l55.1663-2.4279c5.9089,0,10.6991-4.7923,10.6991-10.7012s-4.7901-10.7012-10.6991-10.7012Z" style="fill:#118b42; stroke-width:0px;"/></svg>