<?xml version="1.0" encoding="UTF-8"?><svg id="_レイヤー_1" xmlns="http://www.w3.org/2000/svg" width="71.4922" height="66.7715" viewBox="0 0 71.4922 66.7715"><path d="M46.1861,4.8978c0,2.7062-2.1945,4.8987-4.8987,4.8987-2.7063,0-4.8997-2.1925-4.8997-4.8987s2.1935-4.8978,4.8997-4.8978c2.7043,0,4.8987,2.1925,4.8987,4.8978Z" style="fill:#e7201a; stroke-width:0px;"/><path d="M47.1556,39.4655l-2.2278,3.3487c4.6718,2.1306,7.6364,5.1129,7.6364,8.3574,0,6.2897-11.1206,11.604-24.2842,11.604S3.996,57.4613,3.996,51.1716s11.1211-11.604,24.284-11.604c2.7426,0,5.3943.2328,7.8766.6552l2.0199-3.7033c-3.0675-.6139-6.398-.9479-9.8964-.9479-15.8578,0-28.28,6.8516-28.28,15.6s12.4222,15.6,28.28,15.6,28.2802-6.8516,28.2802-15.6c0-4.7101-3.6041-8.8682-9.4046-11.7061Z" style="fill:#e7201a; stroke-width:0px;"/><path d="M69.007,35.3182l-9.9105-.4361-.3114-7.0082c-.0118-.1405-.0354-.277-.0639-.4116-.1748-1.777-.6758-3.6512-1.4233-4.7936-.7918-1.2102-3.2269-5.3182-3.9794-6.5903l3.6807-.6935,6.5323,5.9803c.7436.7446,1.9508.7446,2.6955,0,.7446-.7446.7446-1.9508,0-2.6955l-5.9695-6.6021c-.5805-.7053-1.162-1.2446-2.2613-1.4047,0,0-11.763-.553-13.9202-.055-1.3487.3114-3.6522,1.162-4.7465,3.0825l-3.453,5.2533-8.1993.3762c-1.053,0-1.9066.8536-1.9066,1.9066s.8536,1.9056,1.9066,1.9056l9.4294.4332c.0108,0,.0206-.002.0324-.002.7357.0098,1.4656-.3251,1.9293-.9676l3.0117-3.8044c.001.001.004.0049.004.0049.0177-.0265.0344-.051.051-.0746l.1385-.1758c.2534-.276.4028-.22.7515.3605.664,1.1061,2.3231,4.4812,2.7652,5.5323.1916.4538.2918.8576.111,1.3949-.0147.0226-.0314.0433-.0452.0658l-4.6041,8.4463-6.1387,11.2591c-.7092,1.1749-.332,2.7023.8428,3.4116,1.1751.7092,2.7035.332,3.4127-.8428l7.1031-10.6766,4.5922-6.9022c.22-.2849.4931-.6621.5766-.8664l.1601-.2397c.0108-.0197.0196-.0393.0304-.0579.0904-.0403.1788.053.2112.3742,0,.002.002.003.002.0039l1.0933,8.2135c.0295.3251.11.6336.2298.9194.4518,1.1198,1.5461,1.9106,2.8281,1.9106l12.8112-.5638c1.3723,0,2.4852-1.113,2.4852-2.4852s-1.113-2.4852-2.4852-2.4852Z" style="fill:#e7201a; stroke-width:0px;"/></svg>