{
    "asset" : {
        "generator" : "Khronos glTF Blender I/O v3.3.27",
        "version" : "2.0"
    },
    "scene" : 0,
    "scenes" : [
        {
            "name" : "Scene",
            "nodes" : [
                1,
                2,
                3,
                4,
                5
            ]
        }
    ],
    "nodes" : [
        {
            "mesh" : 0,
            "name" : "spoiler",
            "translation" : [
                0,
                0.45000001788139343,
                -1.0436861515045166
            ]
        },
        {
            "children" : [
                0
            ],
            "mesh" : 1,
            "name" : "body",
            "translation" : [
                0,
                0.15000000596046448,
                -0.02500000037252903
            ]
        },
        {
            "mesh" : 2,
            "name" : "wheel-back-left",
            "translation" : [
                0.30000001192092896,
                0.30000001192092896,
                -0.6599999666213989
            ]
        },
        {
            "mesh" : 3,
            "name" : "wheel-back-right",
            "translation" : [
                -0.30000001192092896,
                0.30000001192092896,
                -0.6599999666213989
            ]
        },
        {
            "mesh" : 4,
            "name" : "wheel-front-left",
            "translation" : [
                0.30000001192092896,
                0.30000001192092896,
                0.6599999666213989
            ]
        },
        {
            "mesh" : 5,
            "name" : "wheel-front-right",
            "translation" : [
                -0.30000001192092896,
                0.30000001192092896,
                0.6599999666213989
            ]
        }
    ],
    "materials" : [
        {
            "doubleSided" : true,
            "name" : "colormap",
            "pbrMetallicRoughness" : {
                "baseColorTexture" : {
                    "index" : 0
                },
                "metallicFactor" : 0
            }
        }
    ],
    "meshes" : [
        {
            "name" : "spoiler",
            "primitives" : [
                {
                    "attributes" : {
                        "POSITION" : 0,
                        "NORMAL" : 1,
                        "TEXCOORD_0" : 2
                    },
                    "indices" : 3,
                    "material" : 0
                }
            ]
        },
        {
            "name" : "body",
            "primitives" : [
                {
                    "attributes" : {
                        "POSITION" : 4,
                        "NORMAL" : 5,
                        "TEXCOORD_0" : 6
                    },
                    "indices" : 7,
                    "material" : 0
                }
            ]
        },
        {
            "name" : "wheel-back-left",
            "primitives" : [
                {
                    "attributes" : {
                        "POSITION" : 8,
                        "NORMAL" : 9,
                        "TEXCOORD_0" : 10
                    },
                    "indices" : 11,
                    "material" : 0
                }
            ]
        },
        {
            "name" : "wheel-back-right",
            "primitives" : [
                {
                    "attributes" : {
                        "POSITION" : 12,
                        "NORMAL" : 13,
                        "TEXCOORD_0" : 14
                    },
                    "indices" : 15,
                    "material" : 0
                }
            ]
        },
        {
            "name" : "wheel-front-left",
            "primitives" : [
                {
                    "attributes" : {
                        "POSITION" : 16,
                        "NORMAL" : 17,
                        "TEXCOORD_0" : 18
                    },
                    "indices" : 11,
                    "material" : 0
                }
            ]
        },
        {
            "name" : "wheel-front-right",
            "primitives" : [
                {
                    "attributes" : {
                        "POSITION" : 19,
                        "NORMAL" : 20,
                        "TEXCOORD_0" : 21
                    },
                    "indices" : 15,
                    "material" : 0
                }
            ]
        }
    ],
    "textures" : [
        {
            "sampler" : 0,
            "source" : 0
        }
    ],
    "images" : [
        {
            "bufferView" : 4,
            "mimeType" : "image/png",
            "name" : "colormap"
        }
    ],
    "accessors" : [
        {
            "bufferView" : 0,
            "componentType" : 5126,
            "count" : 89,
            "max" : [
                0.550000011920929,
                0.30000001192092896,
                0.11868619173765182
            ],
            "min" : [
                -0.550000011920929,
                0,
                -0.11868619173765182
            ],
            "type" : "VEC3"
        },
        {
            "bufferView" : 1,
            "componentType" : 5126,
            "count" : 89,
            "type" : "VEC3"
        },
        {
            "bufferView" : 2,
            "componentType" : 5126,
            "count" : 89,
            "type" : "VEC2"
        },
        {
            "bufferView" : 3,
            "componentType" : 5123,
            "count" : 144,
            "type" : "SCALAR"
        },
        {
            "bufferView" : 5,
            "componentType" : 5126,
            "count" : 1538,
            "max" : [
                0.6499999761581421,
                0.9499999284744263,
                1.274999976158142
            ],
            "min" : [
                -0.6499999761581421,
                0,
                -1.274999976158142
            ],
            "type" : "VEC3"
        },
        {
            "bufferView" : 6,
            "componentType" : 5126,
            "count" : 1538,
            "type" : "VEC3"
        },
        {
            "bufferView" : 7,
            "componentType" : 5126,
            "count" : 1538,
            "type" : "VEC2"
        },
        {
            "bufferView" : 8,
            "componentType" : 5123,
            "count" : 2136,
            "type" : "SCALAR"
        },
        {
            "bufferView" : 9,
            "componentType" : 5126,
            "count" : 665,
            "max" : [
                0.3000001907348633,
                0.30000001192092896,
                0.30000001192092896
            ],
            "min" : [
                -0.05000000074505806,
                -0.30000001192092896,
                -0.30000001192092896
            ],
            "type" : "VEC3"
        },
        {
            "bufferView" : 10,
            "componentType" : 5126,
            "count" : 665,
            "type" : "VEC3"
        },
        {
            "bufferView" : 11,
            "componentType" : 5126,
            "count" : 665,
            "type" : "VEC2"
        },
        {
            "bufferView" : 12,
            "componentType" : 5123,
            "count" : 996,
            "type" : "SCALAR"
        },
        {
            "bufferView" : 13,
            "componentType" : 5126,
            "count" : 736,
            "max" : [
                0.05000000074505806,
                0.30000001192092896,
                0.30000001192092896
            ],
            "min" : [
                -0.3000001907348633,
                -0.30000001192092896,
                -0.30000001192092896
            ],
            "type" : "VEC3"
        },
        {
            "bufferView" : 14,
            "componentType" : 5126,
            "count" : 736,
            "type" : "VEC3"
        },
        {
            "bufferView" : 15,
            "componentType" : 5126,
            "count" : 736,
            "type" : "VEC2"
        },
        {
            "bufferView" : 16,
            "componentType" : 5123,
            "count" : 996,
            "type" : "SCALAR"
        },
        {
            "bufferView" : 17,
            "componentType" : 5126,
            "count" : 665,
            "max" : [
                0.3000001907348633,
                0.30000001192092896,
                0.30000001192092896
            ],
            "min" : [
                -0.05000000074505806,
                -0.30000001192092896,
                -0.30000001192092896
            ],
            "type" : "VEC3"
        },
        {
            "bufferView" : 18,
            "componentType" : 5126,
            "count" : 665,
            "type" : "VEC3"
        },
        {
            "bufferView" : 19,
            "componentType" : 5126,
            "count" : 665,
            "type" : "VEC2"
        },
        {
            "bufferView" : 20,
            "componentType" : 5126,
            "count" : 736,
            "max" : [
                0.05000000074505806,
                0.30000001192092896,
                0.30000001192092896
            ],
            "min" : [
                -0.3000001907348633,
                -0.30000001192092896,
                -0.30000001192092896
            ],
            "type" : "VEC3"
        },
        {
            "bufferView" : 21,
            "componentType" : 5126,
            "count" : 736,
            "type" : "VEC3"
        },
        {
            "bufferView" : 22,
            "componentType" : 5126,
            "count" : 736,
            "type" : "VEC2"
        }
    ],
    "bufferViews" : [
        {
            "buffer" : 0,
            "byteLength" : 1068,
            "byteOffset" : 0,
            "target" : 34962
        },
        {
            "buffer" : 0,
            "byteLength" : 1068,
            "byteOffset" : 1068,
            "target" : 34962
        },
        {
            "buffer" : 0,
            "byteLength" : 712,
            "byteOffset" : 2136,
            "target" : 34962
        },
        {
            "buffer" : 0,
            "byteLength" : 288,
            "byteOffset" : 2848,
            "target" : 34963
        },
        {
            "buffer" : 0,
            "byteLength" : 11634,
            "byteOffset" : 3136
        },
        {
            "buffer" : 0,
            "byteLength" : 18456,
            "byteOffset" : 14772,
            "target" : 34962
        },
        {
            "buffer" : 0,
            "byteLength" : 18456,
            "byteOffset" : 33228,
            "target" : 34962
        },
        {
            "buffer" : 0,
            "byteLength" : 12304,
            "byteOffset" : 51684,
            "target" : 34962
        },
        {
            "buffer" : 0,
            "byteLength" : 4272,
            "byteOffset" : 63988,
            "target" : 34963
        },
        {
            "buffer" : 0,
            "byteLength" : 7980,
            "byteOffset" : 68260,
            "target" : 34962
        },
        {
            "buffer" : 0,
            "byteLength" : 7980,
            "byteOffset" : 76240,
            "target" : 34962
        },
        {
            "buffer" : 0,
            "byteLength" : 5320,
            "byteOffset" : 84220,
            "target" : 34962
        },
        {
            "buffer" : 0,
            "byteLength" : 1992,
            "byteOffset" : 89540,
            "target" : 34963
        },
        {
            "buffer" : 0,
            "byteLength" : 8832,
            "byteOffset" : 91532,
            "target" : 34962
        },
        {
            "buffer" : 0,
            "byteLength" : 8832,
            "byteOffset" : 100364,
            "target" : 34962
        },
        {
            "buffer" : 0,
            "byteLength" : 5888,
            "byteOffset" : 109196,
            "target" : 34962
        },
        {
            "buffer" : 0,
            "byteLength" : 1992,
            "byteOffset" : 115084,
            "target" : 34963
        },
        {
            "buffer" : 0,
            "byteLength" : 7980,
            "byteOffset" : 117076,
            "target" : 34962
        },
        {
            "buffer" : 0,
            "byteLength" : 7980,
            "byteOffset" : 125056,
            "target" : 34962
        },
        {
            "buffer" : 0,
            "byteLength" : 5320,
            "byteOffset" : 133036,
            "target" : 34962
        },
        {
            "buffer" : 0,
            "byteLength" : 8832,
            "byteOffset" : 138356,
            "target" : 34962
        },
        {
            "buffer" : 0,
            "byteLength" : 8832,
            "byteOffset" : 147188,
            "target" : 34962
        },
        {
            "buffer" : 0,
            "byteLength" : 5888,
            "byteOffset" : 156020,
            "target" : 34962
        }
    ],
    "samplers" : [
        {
            "magFilter" : 9728,
            "minFilter" : 9984
        }
    ],
    "buffers" : [
        {
            "byteLength" : 161908,
            "uri" : "data:application/octet-stream;base64,"
        }
    ]
}
