{
    "asset" : {
        "generator" : "Khronos glTF Blender I/O v3.3.27",
        "version" : "2.0"
    },
    "scene" : 0,
    "scenes" : [
        {
            "name" : "Scene",
            "nodes" : [
                3
            ]
        }
    ],
    "nodes" : [
        {
            "mesh" : 0,
            "name" : "collector",
            "translation" : [
                0,
                5.680196285247803,
                -168.27984619140625
            ]
        },
        {
            "mesh" : 1,
            "name" : "wheels-back",
            "translation" : [
                0,
                -50,
                -35.94994354248047
            ]
        },
        {
            "mesh" : 2,
            "name" : "wheels-front",
            "translation" : [
                0,
                60.00000762939453,
                -35.949947357177734
            ]
        },
        {
            "children" : [
                0,
                1,
                2
            ],
            "mesh" : 3,
            "name" : "train-electric-square-a",
            "rotation" : [
                0.0012851102510467172,
                0.7071055173873901,
                -0.7071057558059692,
                0.0012851100182160735
            ],
            "scale" : [
                0.010000000707805157,
                0.010000000707805157,
                0.010000000707805157
            ]
        }
    ],
    "materials" : [
        {
            "doubleSided" : true,
            "name" : "colormap",
            "pbrMetallicRoughness" : {
                "baseColorTexture" : {
                    "index" : 0
                },
                "metallicFactor" : 0,
                "roughnessFactor" : 0.5527864098548889
            }
        }
    ],
    "meshes" : [
        {
            "name" : "Scene.001",
            "primitives" : [
                {
                    "attributes" : {
                        "POSITION" : 0,
                        "NORMAL" : 1,
                        "TEXCOORD_0" : 2
                    },
                    "indices" : 3,
                    "material" : 0
                }
            ]
        },
        {
            "name" : "Scene.002",
            "primitives" : [
                {
                    "attributes" : {
                        "POSITION" : 4,
                        "NORMAL" : 5,
                        "TEXCOORD_0" : 6
                    },
                    "indices" : 7,
                    "material" : 0
                }
            ]
        },
        {
            "name" : "Scene.003",
            "primitives" : [
                {
                    "attributes" : {
                        "POSITION" : 8,
                        "NORMAL" : 9,
                        "TEXCOORD_0" : 10
                    },
                    "indices" : 7,
                    "material" : 0
                }
            ]
        },
        {
            "name" : "Scene",
            "primitives" : [
                {
                    "attributes" : {
                        "POSITION" : 11,
                        "NORMAL" : 12,
                        "TEXCOORD_0" : 13
                    },
                    "indices" : 14,
                    "material" : 0
                }
            ]
        }
    ],
    "textures" : [
        {
            "sampler" : 0,
            "source" : 0
        }
    ],
    "images" : [
        {
            "bufferView" : 4,
            "mimeType" : "image/png",
            "name" : "colormap"
        }
    ],
    "accessors" : [
        {
            "bufferView" : 0,
            "componentType" : 5126,
            "count" : 232,
            "max" : [
                56.38303756713867,
                31.81980323791504,
                7.071068286895752
            ],
            "min" : [
                -56.38303756713867,
                -7.071068286895752,
                -63.639610290527344
            ],
            "type" : "VEC3"
        },
        {
            "bufferView" : 1,
            "componentType" : 5126,
            "count" : 232,
            "type" : "VEC3"
        },
        {
            "bufferView" : 2,
            "componentType" : 5126,
            "count" : 232,
            "type" : "VEC2"
        },
        {
            "bufferView" : 3,
            "componentType" : 5123,
            "count" : 324,
            "type" : "SCALAR"
        },
        {
            "bufferView" : 5,
            "componentType" : 5126,
            "count" : 539,
            "max" : [
                49.14999771118164,
                38.05960464477539,
                35.94993591308594
            ],
            "min" : [
                -49.14999771118164,
                -38.05960464477539,
                0
            ],
            "type" : "VEC3"
        },
        {
            "bufferView" : 6,
            "componentType" : 5126,
            "count" : 539,
            "type" : "VEC3"
        },
        {
            "bufferView" : 7,
            "componentType" : 5126,
            "count" : 539,
            "type" : "VEC2"
        },
        {
            "bufferView" : 8,
            "componentType" : 5123,
            "count" : 948,
            "type" : "SCALAR"
        },
        {
            "bufferView" : 9,
            "componentType" : 5126,
            "count" : 539,
            "max" : [
                49.14999771118164,
                38.05960464477539,
                35.94993591308594
            ],
            "min" : [
                -49.14999771118164,
                -38.05960464477539,
                0
            ],
            "type" : "VEC3"
        },
        {
            "bufferView" : 10,
            "componentType" : 5126,
            "count" : 539,
            "type" : "VEC3"
        },
        {
            "bufferView" : 11,
            "componentType" : 5126,
            "count" : 539,
            "type" : "VEC2"
        },
        {
            "bufferView" : 12,
            "componentType" : 5126,
            "count" : 1330,
            "max" : [
                54.999996185302734,
                135.00001525878906,
                -15.949935913085938
            ],
            "min" : [
                -54.999996185302734,
                -125.00001525878906,
                -178.27981567382812
            ],
            "type" : "VEC3"
        },
        {
            "bufferView" : 13,
            "componentType" : 5126,
            "count" : 1330,
            "type" : "VEC3"
        },
        {
            "bufferView" : 14,
            "componentType" : 5126,
            "count" : 1330,
            "type" : "VEC2"
        },
        {
            "bufferView" : 15,
            "componentType" : 5123,
            "count" : 2628,
            "type" : "SCALAR"
        }
    ],
    "bufferViews" : [
        {
            "buffer" : 0,
            "byteLength" : 2784,
            "byteOffset" : 0,
            "target" : 34962
        },
        {
            "buffer" : 0,
            "byteLength" : 2784,
            "byteOffset" : 2784,
            "target" : 34962
        },
        {
            "buffer" : 0,
            "byteLength" : 1856,
            "byteOffset" : 5568,
            "target" : 34962
        },
        {
            "buffer" : 0,
            "byteLength" : 648,
            "byteOffset" : 7424,
            "target" : 34963
        },
        {
            "buffer" : 0,
            "byteLength" : 12684,
            "byteOffset" : 8072
        },
        {
            "buffer" : 0,
            "byteLength" : 6468,
            "byteOffset" : 20756,
            "target" : 34962
        },
        {
            "buffer" : 0,
            "byteLength" : 6468,
            "byteOffset" : 27224,
            "target" : 34962
        },
        {
            "buffer" : 0,
            "byteLength" : 4312,
            "byteOffset" : 33692,
            "target" : 34962
        },
        {
            "buffer" : 0,
            "byteLength" : 1896,
            "byteOffset" : 38004,
            "target" : 34963
        },
        {
            "buffer" : 0,
            "byteLength" : 6468,
            "byteOffset" : 39900,
            "target" : 34962
        },
        {
            "buffer" : 0,
            "byteLength" : 6468,
            "byteOffset" : 46368,
            "target" : 34962
        },
        {
            "buffer" : 0,
            "byteLength" : 4312,
            "byteOffset" : 52836,
            "target" : 34962
        },
        {
            "buffer" : 0,
            "byteLength" : 15960,
            "byteOffset" : 57148,
            "target" : 34962
        },
        {
            "buffer" : 0,
            "byteLength" : 15960,
            "byteOffset" : 73108,
            "target" : 34962
        },
        {
            "buffer" : 0,
            "byteLength" : 10640,
            "byteOffset" : 89068,
            "target" : 34962
        },
        {
            "buffer" : 0,
            "byteLength" : 5256,
            "byteOffset" : 99708,
            "target" : 34963
        }
    ],
    "samplers" : [
        {
            "magFilter" : 9729,
            "minFilter" : 9987
        }
    ],
    "buffers" : [
        {
            "byteLength" : 104964,
            "uri" : "data:application/octet-stream;base64,"
        }
    ]
}
